<svg width="54" height="54" viewBox="0 0 54 54" fill="none" xmlns="http://www.w3.org/2000/svg">
<g clip-path="url(#clip0_907_14580)">
<path d="M48.0851 47.198V41.366H46.9597V25.5997H48.0851V21.5107H46.3518V23.8436H39.4316V21.5107H37.6983V25.5997H38.8237V41.366H37.6983V47.198H31.8647V41.366H30.7393V25.5997H31.8647V21.5107H30.1314V23.8436H23.2112V21.5107H21.4779V25.5997H22.6033V41.366H21.4779V47.198H15.6443V41.366H14.5189V25.5997H15.6443V21.5107H13.911V23.8436H6.99081V21.5107H5.25753V25.5997H6.38287V41.366H5.25753V47.198H0.264648V53.9082H1.99793V48.9411H52.1208V53.9082H53.8541V47.198H48.098H48.0851ZM39.4445 43.109H46.3647V47.198H39.4445V43.109ZM40.5699 25.5997H45.2394V41.366H40.5699V25.5997ZM23.2371 43.109H30.1573V47.198H23.2371V43.109ZM24.3624 25.5997H29.0319V41.366H24.3624V25.5997ZM7.02962 43.109H13.9498V47.198H7.02962V43.109ZM8.15495 25.5997H12.8245V41.366H8.15495V25.5997Z" fill="white"/>
<path d="M4.3652 19.7673H49.7409C51.3707 19.7673 51.9011 19.1382 52.0692 18.614C52.2244 18.0898 52.1339 17.2641 50.7757 16.3467L27.0531 0.318359L3.34334 16.3336C1.98517 17.251 1.88169 18.0766 2.04984 18.6009C2.20506 19.1251 2.7354 19.7542 4.37813 19.7542L4.3652 19.7673ZM4.30052 17.8014L27.0531 2.42839L49.8056 17.8014C49.922 17.8801 50.0126 17.9456 50.0772 18.0111C49.9867 18.0111 49.8703 18.0242 49.7409 18.0242H4.3652C4.23585 18.0242 4.11943 18.0242 4.02889 18.0111C4.1065 17.9456 4.19704 17.8801 4.30052 17.8014Z" fill="white"/>
</g>
<defs>
<clipPath id="clip0_907_14580">
<rect width="53.5894" height="53.5894" fill="white" transform="translate(0.264648 0.318359)"/>
</clipPath>
</defs>
</svg>
