<svg width="53" height="40" viewBox="0 0 53 40" fill="none" xmlns="http://www.w3.org/2000/svg">
<g clip-path="url(#clip0_907_14538)">
<path d="M7.74555 39.4774C7.32986 39.4774 6.92716 39.4516 6.52446 39.387C4.12125 39.0383 2.28962 37.6434 1.49721 35.5641C0.639848 33.3169 0.626858 29.7523 1.48422 24.9996C2.25065 20.673 3.56267 16.3335 4.27714 14.138C6.18672 8.24868 11.7336 4.94241 17.1765 6.45348C21.7231 7.70624 26.8283 7.82248 26.8803 7.82248L26.8413 9.5531C26.6205 9.5531 21.4763 9.43687 16.7089 8.11953C12.1753 6.86676 7.5507 9.68226 5.92691 14.6675C4.79675 18.1804 1.22441 30.0106 3.121 34.9571C3.69257 36.4553 4.99161 37.4239 6.77128 37.6822C9.20047 38.0438 12.7468 36.9977 15.163 33.8722C16.54 32.09 17.5013 30.6047 18.2677 29.4165C19.8006 27.0402 20.7229 25.5937 22.8273 25.5937H26.8543V27.3243H22.8273C21.7231 27.3243 21.2035 28.0475 19.7356 30.3464C18.9562 31.5604 17.9819 33.0844 16.553 34.9313C14.3706 37.7468 10.9672 39.4774 7.75854 39.4774H7.74555Z" fill="white"/>
<path d="M45.9499 39.4769C42.7543 39.4769 39.3378 37.7463 37.1554 34.9308C35.7265 33.0839 34.7522 31.5599 33.9728 30.3459C32.5049 28.047 31.9853 27.3238 30.8811 27.3238H26.8541V25.5931H30.8811C32.9855 25.5931 33.9078 27.0267 35.4407 29.416C36.2071 30.6042 37.1554 32.0894 38.5454 33.8717C40.9616 36.9972 44.495 38.0304 46.9371 37.6817C48.7168 37.4234 50.0158 36.4547 50.5874 34.9566C52.484 30.0101 48.9117 18.1799 47.7815 14.667C46.1707 9.68174 41.5332 6.86625 36.9995 8.11901C32.2321 9.43635 27.0879 9.55259 26.8671 9.55259L26.8281 7.82197C26.8281 7.82197 31.9723 7.70573 36.5319 6.45297C41.9748 4.95482 47.5217 8.24817 49.4313 14.1375C50.1458 16.333 51.4578 20.6725 52.2242 24.999C53.0686 29.7518 53.0686 33.3035 52.2112 35.5636C51.4188 37.6429 49.5872 39.0378 47.184 39.3865C46.7813 39.451 46.3656 39.4769 45.9629 39.4769H45.9499Z" fill="white"/>
<path d="M33.5053 20.6471C32.2323 20.6471 31.2061 19.6268 31.2061 18.3612C31.2061 17.0955 32.2323 16.0752 33.5053 16.0752C34.7784 16.0752 35.8046 17.0955 35.8046 18.3612C35.8046 19.6268 34.7784 20.6471 33.5053 20.6471ZM33.5053 17.2246C32.8688 17.2246 32.3622 17.7283 32.3622 18.3612C32.3622 18.994 32.8688 19.4977 33.5053 19.4977C34.1419 19.4977 34.6485 18.994 34.6485 18.3612C34.6485 17.7283 34.1419 17.2246 33.5053 17.2246Z" fill="white"/>
<path d="M42.3515 20.6471C41.0785 20.6471 40.0522 19.6268 40.0522 18.3612C40.0522 17.0955 41.0785 16.0752 42.3515 16.0752C43.6246 16.0752 44.6508 17.0955 44.6508 18.3612C44.6508 19.6268 43.6246 20.6471 42.3515 20.6471ZM42.3515 17.2246C41.715 17.2246 41.2084 17.7283 41.2084 18.3612C41.2084 18.994 41.715 19.4977 42.3515 19.4977C42.9881 19.4977 43.4947 18.994 43.4947 18.3612C43.4947 17.7283 42.9881 17.2246 42.3515 17.2246Z" fill="white"/>
<path d="M37.935 16.2428C36.662 16.2428 35.6357 15.2226 35.6357 13.9569C35.6357 12.6912 36.662 11.6709 37.935 11.6709C39.2081 11.6709 40.2343 12.6912 40.2343 13.9569C40.2343 15.2226 39.2081 16.2428 37.935 16.2428ZM37.935 12.8203C37.2985 12.8203 36.7919 13.324 36.7919 13.9569C36.7919 14.5897 37.2985 15.0934 37.935 15.0934C38.5716 15.0934 39.0782 14.5897 39.0782 13.9569C39.0782 13.324 38.5716 12.8203 37.935 12.8203Z" fill="white"/>
<path d="M37.935 25.0514C36.662 25.0514 35.6357 24.0311 35.6357 22.7655C35.6357 21.4998 36.662 20.4795 37.935 20.4795C39.2081 20.4795 40.2343 21.4998 40.2343 22.7655C40.2343 24.0311 39.2081 25.0514 37.935 25.0514ZM37.935 21.6289C37.2985 21.6289 36.7919 22.1326 36.7919 22.7655C36.7919 23.3983 37.2985 23.902 37.935 23.902C38.5716 23.902 39.0782 23.3983 39.0782 22.7655C39.0782 22.1326 38.5716 21.6289 37.935 21.6289Z" fill="white"/>
<path d="M19.8264 17.7803H9.10938V18.9297H19.8264V17.7803Z" fill="white"/>
<path d="M15.0463 13.0273H13.8901V23.6823H15.0463V13.0273Z" fill="white"/>
</g>
<defs>
<clipPath id="clip0_907_14538">
<rect width="52.0132" height="39.404" fill="white" transform="translate(0.847656 0.0732422)"/>
</clipPath>
</defs>
</svg>
