<svg width="50" height="50" viewBox="0 0 50 50" fill="none" xmlns="http://www.w3.org/2000/svg">
<g clip-path="url(#clip0_907_14566)">
<path d="M8.12869 13.0761L6.95053 11.8008C3.03212 15.2016 0.794922 20.0709 0.794922 25.1464C0.794922 30.2219 3.03212 35.0912 6.95053 38.5049L8.12869 37.2296C4.59419 34.1379 2.56879 29.7452 2.56879 25.1464C2.56879 20.5476 4.59419 16.1549 8.12869 13.0632V13.0761Z" fill="white"/>
<path d="M43.5004 11.7881L42.3223 13.0634C45.8568 16.155 47.8822 20.5478 47.8822 25.1466C47.8822 29.7454 45.8568 34.1381 42.3223 37.2298L43.5004 38.5051C47.4056 35.0914 49.656 30.222 49.656 25.1466C49.656 20.0711 47.4188 15.2018 43.5004 11.7881Z" fill="white"/>
<path d="M21.3266 28.1475H19.5527V49.3381H21.3266V28.1475Z" fill="white"/>
<path d="M31.6391 0.567383H29.8652V10.9502H31.6391V0.567383Z" fill="white"/>
<path d="M29.8652 17.082V49.3511H31.6391V17.082C31.3479 17.1207 31.0566 17.1722 30.7522 17.1722C30.4477 17.1722 30.1565 17.1207 29.8652 17.082Z" fill="white"/>
<path d="M20.7971 0.567493C20.4794 0.425792 20.1087 0.490201 19.844 0.709193C16.7331 3.42727 14.8798 7.2403 14.668 11.2723V26.4343H21.3266V1.35329C21.3266 1.01836 21.1148 0.709193 20.7971 0.567493ZM19.5527 12.0195V24.7081H16.4286V11.2723C16.6007 8.42543 17.6994 5.69448 19.5527 3.49168V12.0195Z" fill="white"/>
<path d="M34.2867 10.2803C34.2867 12.1739 32.6982 13.7198 30.7522 13.7198C28.8063 13.7198 27.2177 12.1739 27.2177 10.2803V0.567383H25.4438V10.2803C25.4438 13.1272 27.8267 15.4459 30.7522 15.4459C33.6778 15.4459 36.0606 13.1272 36.0606 10.2803V0.567383H34.2867V10.2803Z" fill="white"/>
</g>
<defs>
<clipPath id="clip0_907_14566">
<rect width="48.8609" height="48.8609" fill="white" transform="translate(0.794922 0.490234)"/>
</clipPath>
</defs>
</svg>
