<svg width="51" height="51" viewBox="0 0 51 51" fill="none" xmlns="http://www.w3.org/2000/svg">
<g clip-path="url(#clip0_907_14548)">
<path d="M40.0563 9.00903C40.0563 5.73149 37.958 0.516602 32.3018 0.516602C28.3789 0.516602 26.2415 2.4274 25.2119 3.79415C24.1823 2.41413 22.0449 0.516602 18.109 0.516602C12.4658 0.516602 10.3545 5.73149 10.3545 9.00903C10.3545 14.8343 15.2027 20.6994 24.7558 26.4318C24.8991 26.5114 25.0425 26.5512 25.1989 26.5512C25.3553 26.5512 25.4986 26.5114 25.642 26.4318C35.1951 20.6994 40.0433 14.8343 40.0433 9.00903H40.0563ZM25.2119 24.6404C19.1256 20.925 12.1009 15.2722 12.1009 9.00903C12.1009 7.27074 13.2087 2.2947 18.109 2.2947C23.0094 2.2947 24.3387 5.69168 24.4039 5.83764C24.5342 6.16938 24.86 6.38169 25.2119 6.38169C25.5638 6.38169 25.8766 6.16938 26.02 5.83764C26.0721 5.69168 27.5187 2.2947 32.3148 2.2947C37.1109 2.2947 38.323 7.27074 38.323 9.00903C38.323 15.2722 31.2983 20.925 25.2119 24.6404Z" fill="white"/>
<path d="M13.7819 27.2814C12.7914 26.5383 10.9147 25.636 9.07705 25.9146C8.82943 23.0484 8.15172 15.3654 8.00836 14.4764C7.98229 14.3437 7.98229 14.1579 7.96926 13.9323C7.89106 12.6187 7.68254 9.15535 4.11154 9.06247C2.84736 9.02266 1.81776 9.3942 1.07489 10.124C-0.00683594 11.2121 -0.00683594 12.6585 -0.00683594 12.8044V40.312L0.240788 40.9224L9.74173 50.9408L10.9929 49.7067L1.73956 39.9537V12.8044C1.73956 12.8044 1.73956 11.9419 2.31301 11.3846C2.70399 10.9998 3.29047 10.814 4.07244 10.8406C5.72761 10.8804 6.10557 11.995 6.23589 14.0518C6.24893 14.3437 6.27499 14.5825 6.30106 14.7683C6.43139 15.5645 7.09606 23.1148 7.39582 26.6046C7.16122 26.7639 6.92663 26.9497 6.70508 27.1752C5.19327 28.7145 3.98121 31.2224 6.74417 34.5265C7.95623 35.9729 9.98935 38.2154 9.98935 38.2154L11.2666 37.0079C11.2666 37.0079 9.25951 34.7919 8.07352 33.3721C6.47048 31.448 6.43139 29.9751 7.9432 28.4358C9.79386 26.5516 12.635 28.6481 12.6741 28.6614L21.8232 37.6979V49.9456H23.5696V37.3263L23.3089 36.6894L13.808 27.3212L13.7819 27.2814Z" fill="white"/>
<path d="M49.3483 10.1235C48.6185 9.38043 47.615 9.03543 46.3117 9.06197C42.7407 9.15485 42.5322 12.6314 42.454 13.9318C42.454 14.1442 42.4279 14.3299 42.4149 14.4759C42.2715 15.3649 41.5938 23.0479 41.3462 25.9141C39.5086 25.6355 37.6058 26.5511 36.5501 27.3472L27.1274 36.6491L26.8667 37.286V49.9053H28.6131V37.6576L37.684 28.7007C37.8012 28.6078 40.6554 26.5245 42.5061 28.4088C44.0179 29.948 43.9788 31.4342 42.3758 33.345C41.1898 34.7648 39.1827 36.9808 39.1827 36.9808L40.4599 38.1884C40.4599 38.1884 42.4931 35.9458 43.7051 34.4995C46.4681 31.2086 45.243 28.6874 43.7442 27.1482C43.5227 26.9226 43.2881 26.7368 43.0535 26.5776C43.3532 23.0877 44.0309 15.5374 44.1482 14.7413C44.1743 14.5555 44.2004 14.3167 44.2134 14.0247C44.3307 11.9812 44.7087 10.8533 46.3769 10.8135C47.1588 10.787 47.7453 10.9728 48.1363 11.3576C48.6967 11.9149 48.7097 12.7774 48.7097 12.7907V39.9532L39.4564 49.7062L40.7076 50.9403L50.2085 40.9219L50.4561 40.3115V12.8172C50.4561 12.658 50.4561 11.2116 49.3744 10.1235H49.3483Z" fill="white"/>
</g>
<defs>
<clipPath id="clip0_907_14548">
<rect width="50.4371" height="50.4371" fill="white" transform="translate(-0.00683594 0.516602)"/>
</clipPath>
</defs>
</svg>
