<svg width="56" height="53" viewBox="0 0 56 53" fill="none" xmlns="http://www.w3.org/2000/svg">
<g clip-path="url(#clip0_907_14560)">
<path d="M49.9001 50.8326H35.0088V52.603H51.6313V23.3265L49.9001 21.9922V50.8326Z" fill="white"/>
<path d="M5.25208 21.9922L3.50781 23.3265V52.603H20.1304V50.8326H5.25208V21.9922Z" fill="white"/>
<path d="M55.1587 21.5827L27.5759 0.589844L-0.00683594 21.5827L0.513839 22.2962L1.03451 22.9964L3.50772 21.1203L5.25199 19.786L27.5759 2.79615L49.8999 19.786L51.6311 21.1203L54.1044 22.9964L54.6381 22.2962L55.1587 21.5827Z" fill="white"/>
<path d="M27.5759 36.1289C24.4258 36.1289 21.8745 38.7183 21.8745 41.9155V52.6035H33.2773V41.9155C33.2773 38.7316 30.726 36.1289 27.5759 36.1289ZM31.533 50.8332H23.6058V41.9023C23.6058 39.6828 25.3891 37.886 27.5629 37.886C29.7367 37.886 31.52 39.696 31.52 41.9023V50.8332H31.533Z" fill="white"/>
</g>
<defs>
<clipPath id="clip0_907_14560">
<rect width="55.1656" height="52.0132" fill="white" transform="translate(-0.00683594 0.589844)"/>
</clipPath>
</defs>
</svg>
