<svg width="55" height="42" viewBox="0 0 55 42" fill="none" xmlns="http://www.w3.org/2000/svg">
<g clip-path="url(#clip0_907_14553)">
<path d="M49.4196 24.2494H19.6755V22.2912H49.4328C51.0655 22.2912 52.3822 20.9814 52.3822 19.3863V9.89342C52.3822 8.28534 51.0523 6.9885 49.4328 6.9885H16.5293V5.03027H49.4196C52.1452 5.03027 54.3572 7.20896 54.3572 9.89342V19.3863C54.3572 22.0707 52.1452 24.2494 49.4196 24.2494Z" fill="white"/>
<path d="M49.8544 31.1614H26.5357C23.9814 31.1614 21.0846 29.3976 19.9391 27.1411L8.9184 5.43205C8.11521 3.83694 6.04801 2.5012 4.40214 2.5012H0.768066V0.542969H4.40214C6.78535 0.542969 9.55041 2.30667 10.6959 4.56317L21.7167 26.2723C22.5198 27.8674 24.7319 29.2031 26.5357 29.2031H49.8544V31.1614Z" fill="white"/>
<path d="M21.8088 41.5227C19.3334 41.5227 17.3057 39.5386 17.3057 37.0875C17.3057 34.6365 19.3202 32.6523 21.8088 32.6523C24.2973 32.6523 26.3118 34.6365 26.3118 37.0875C26.3118 39.5386 24.2973 41.5227 21.8088 41.5227ZM21.8088 34.6106C20.4262 34.6106 19.2939 35.7259 19.2939 37.0875C19.2939 38.4492 20.4262 39.5645 21.8088 39.5645C23.1913 39.5645 24.3236 38.4492 24.3236 37.0875C24.3236 35.7259 23.1913 34.6106 21.8088 34.6106Z" fill="white"/>
<path d="M46.3522 41.5227C43.8768 41.5227 41.8491 39.5386 41.8491 37.0875C41.8491 34.6365 43.8637 32.6523 46.3522 32.6523C48.8408 32.6523 50.8553 34.6365 50.8553 37.0875C50.8553 39.5386 48.8408 41.5227 46.3522 41.5227ZM46.3522 34.6106C44.9697 34.6106 43.8373 35.7259 43.8373 37.0875C43.8373 38.4492 44.9697 39.5645 46.3522 39.5645C47.7347 39.5645 48.8671 38.4492 48.8671 37.0875C48.8671 35.7259 47.7347 34.6106 46.3522 34.6106Z" fill="white"/>
</g>
<defs>
<clipPath id="clip0_907_14553">
<rect width="53.5894" height="40.9801" fill="white" transform="translate(0.768066 0.542969)"/>
</clipPath>
</defs>
</svg>
