<svg width="43" height="40" viewBox="0 0 43 40" fill="none" xmlns="http://www.w3.org/2000/svg">
<g clip-path="url(#clip0_907_14584)">
<path d="M5.45189 12.224L7.07458 4.62184C7.37556 3.21504 8.81504 2.02467 10.2022 2.02467H32.6712C34.0583 2.02467 35.4847 3.21504 35.7726 4.62184L37.3298 12.224H38.5207C38.7301 12.224 38.9264 12.2646 39.1357 12.2916L37.4869 4.25661C37.0289 2.0382 34.8696 0.225586 32.6712 0.225586H10.2022C7.96444 0.225586 5.84448 1.99762 5.36029 4.24309L3.646 12.2916C3.85538 12.2646 4.05167 12.224 4.26105 12.224H5.4388H5.45189Z" fill="white"/>
<path d="M10.2548 34.9763C10.2548 36.5454 9.02472 37.8034 7.51981 37.8034C6.0149 37.8034 4.7848 36.5319 4.7848 34.9763V33.9482H3.03125V34.9763C3.03125 37.5329 5.04652 39.616 7.51981 39.616C9.9931 39.616 12.0084 37.5329 12.0084 34.9763V33.9482H10.2548V34.9763Z" fill="white"/>
<path d="M37.9975 34.9763C37.9975 36.5454 36.7674 37.8034 35.2625 37.8034C33.7576 37.8034 32.5275 36.5319 32.5275 34.9763V33.9482H30.7739V34.9763C30.7739 37.5329 32.7892 39.616 35.2625 39.616C37.7358 39.616 39.7511 37.5329 39.7511 34.9763V33.9482H37.9975V34.9763Z" fill="white"/>
<path d="M39.5153 14.1714C39.1882 14.0902 38.861 14.0361 38.5208 14.0361H4.26112C3.90779 14.0361 3.56755 14.0902 3.24039 14.1849C1.44758 14.6584 0.112793 16.3357 0.112793 18.3242V32.1487H42.6691V18.3242C42.6691 16.3087 41.3212 14.6313 39.5153 14.1714ZM40.9286 30.3496H1.86634V18.3242C1.86634 16.958 2.93941 15.8352 4.2742 15.8352H38.5208C39.8425 15.8352 40.9286 16.9444 40.9286 18.3242V30.3496Z" fill="white"/>
<path d="M7.27097 18.46C5.30804 18.46 3.72461 20.1102 3.72461 22.1258C3.72461 24.1413 5.32112 25.7916 7.27097 25.7916C9.22081 25.7916 10.8173 24.1413 10.8173 22.1258C10.8173 20.1102 9.22081 18.46 7.27097 18.46ZM7.27097 23.9925C6.27642 23.9925 5.46507 23.1538 5.46507 22.1258C5.46507 21.0977 6.27642 20.259 7.27097 20.259C8.26552 20.259 9.07686 21.0977 9.07686 22.1258C9.07686 23.1538 8.26552 23.9925 7.27097 23.9925Z" fill="white"/>
<path d="M35.6811 18.46C33.7182 18.46 32.1348 20.1102 32.1348 22.1258C32.1348 24.1413 33.7313 25.7916 35.6811 25.7916C37.3954 25.7916 38.8349 24.5336 39.1621 22.8562C39.2144 22.6127 39.2275 22.3692 39.2275 22.1258C39.2275 21.8823 39.2013 21.6253 39.1621 21.3953C38.8349 19.718 37.3954 18.46 35.6811 18.46ZM35.6811 23.9925C34.6866 23.9925 33.8752 23.1538 33.8752 22.1258C33.8752 21.0977 34.6866 20.259 35.6811 20.259C36.6757 20.259 37.487 21.0977 37.487 22.1258C37.487 23.1538 36.6757 23.9925 35.6811 23.9925Z" fill="white"/>
<path d="M28.2872 21.4492H15.1748V23.2618H28.2872V21.4492Z" fill="white"/>
</g>
<defs>
<clipPath id="clip0_907_14584">
<rect width="42.5563" height="39.404" fill="white" transform="translate(0.112793 0.211914)"/>
</clipPath>
</defs>
</svg>
