<svg width="56" height="45" viewBox="0 0 56 45" fill="none" xmlns="http://www.w3.org/2000/svg">
<g clip-path="url(#clip0_907_14575)">
<path d="M21.7972 16.9569H22.6687L21.9591 14.839L17.7261 2.26663H21.8346H24.6233C25.8683 2.26663 27.6611 3.30099 28.4455 4.47079L35.2929 14.6296L36.8616 16.9569H38.866L29.8274 3.55958C28.7194 1.90954 26.4286 0.628906 24.6233 0.628906H15.4229L20.9257 16.9692H21.7972V16.9569Z" fill="white"/>
<path d="M50.5689 18.5945H13.1693C11.4637 18.5945 9.90745 18.1389 9.5713 17.8187L8.51306 16.809L6.57088 14.9619H1.77766C1.20496 14.9619 0.706966 15.1959 0.420618 15.6145C0.13427 16.0209 0.0844707 16.5381 0.271219 17.0429L3.3339 25.2316C4.05599 27.1525 6.24718 28.6671 8.31386 28.6671H18.5352V27.0171H8.31386C6.94437 27.0171 5.37568 25.9335 4.89014 24.6651L1.87726 16.612H5.88613L7.34277 18.0034L8.40101 19.0008C9.24761 19.8135 11.4388 20.2322 13.1569 20.2322H49.8717L53.6315 23.9509C53.4697 25.6749 52.0006 27.0171 50.2203 27.0171H40.8953C40.9949 27.1525 41.1194 27.2633 41.1941 27.4111C41.4057 27.8051 41.5302 28.2238 41.5925 28.6548H50.2203C53.0215 28.6548 55.3123 26.4014 55.3123 23.6185V23.2737L50.5689 18.5822V18.5945Z" fill="white"/>
<path d="M39.7375 28.1991C39.3391 27.448 38.4676 27.0293 37.3471 27.0293H18.5353V28.6793H37.3471C37.8078 28.6793 38.1688 28.7902 38.2684 28.9872C38.3556 29.1473 38.3307 29.4797 37.9945 29.9723L37.758 30.3294L30.6242 40.9069C29.8274 42.0767 28.047 43.111 26.802 43.111H19.9048L24.1378 30.5387L24.2125 30.3294H23.341H22.4695L17.6016 44.7611H26.802C28.6073 44.7611 30.8981 43.4681 32.0186 41.8304L39.3889 30.8958C39.5134 30.7111 39.6006 30.5264 39.6877 30.3417C39.9492 29.7629 40.0239 29.2088 39.8994 28.6917C39.862 28.5316 39.8122 28.3715 39.7375 28.2237V28.1991Z" fill="white"/>
</g>
<defs>
<clipPath id="clip0_907_14575">
<rect width="55.1656" height="44.1325" fill="white" transform="translate(0.15918 0.616211)"/>
</clipPath>
</defs>
</svg>
